# xmcd CD database file
#
# Track frame offsets:
#	150
#	26777
#	56404
#	81906
#	116408
#	143635
#	167862
#	194414
#	217216
#	242943
#	262670
#	282922
#
# Disc length: 4481 seconds
#
# Revision: 0
# Processed by: cddbd v1.4PL0 Copyright (c) Steve Scherf et al.
# Submitted via: CDex 1.51
#
DISCID=b0117f0c
DTITLE=Winton Marsalis - The Midnight Blues
DYEAR=1998
DGENRE=Jazz
TTITLE0=Party's Over
TTITLE1=You're Blasé
TTITLE2=After You've Gone
TTITLE3=Glad to Be Unhappy
TTITLE4=It Never Entered my Mind
TTITLE5=Baby Won't You Please Come Home
TTITLE6=Guess I'll Hang My Tears Out to Dry
TTITLE7=I Got Lost Her Arms
TTITLE8=Ballad of the Sad Young Men
TTITLE9=Spring Will be a Little Late This Year
TTITLE10=My Man's Gone Now
TTITLE11=Midnight Blues
EXTD=YEAR: 1998
EXTT0=
EXTT1=
EXTT2=
EXTT3=
EXTT4=
EXTT5=
EXTT6=
EXTT7=
EXTT8=
EXTT9=
EXTT10=
EXTT11=
PLAYORDER=
